<?xml version="1.0" standalone="no"?>
<!DOCTYPE svg PUBLIC "-//W3C//DTD SVG 20010904//EN"
 "http://www.w3.org/TR/2001/REC-SVG-20010904/DTD/svg10.dtd">
<svg version="1.0" xmlns="http://www.w3.org/2000/svg"
 width="860.000000pt" height="519.000000pt" viewBox="0 0 860.000000 519.000000"
 preserveAspectRatio="xMidYMid meet">

<g transform="translate(0.000000,519.000000) scale(0.100000,-0.100000)"
fill="#000000" stroke="none">
<path d="M5120 4773 c-803 -60 -1509 -606 -1769 -1368 -23 -66 -43 -125 -45
-131 -3 -9 -20 -8 -63 2 -145 34 -357 8 -496 -62 -90 -45 -118 -64 -196 -139
-158 -150 -234 -328 -235 -552 l-1 -121 -35 -6 c-19 -3 -49 -6 -66 -6 -51 0
-184 -38 -261 -74 -102 -49 -178 -103 -254 -182 -158 -166 -224 -322 -239
-569 -10 -160 -26 -227 -75 -328 -124 -255 -414 -504 -865 -747 -74 -40 -139
-76 -145 -81 -5 -6 1360 -8 3385 -6 3178 3 3399 4 3465 20 465 115 793 403
943 829 49 139 66 243 66 413 1 267 -68 492 -217 715 -65 98 -231 263 -331
330 -88 59 -231 129 -318 156 -52 16 -58 21 -62 48 -51 353 -96 509 -217 746
-321 631 -929 1043 -1634 1110 -104 9 -234 11 -335 3z m-330 -1315 c88 -117
123 -196 128 -293 4 -75 1 -86 -33 -165 -99 -227 -101 -257 -35 -443 74 -209
38 -363 -96 -407 -50 -17 -172 -7 -249 19 -111 39 -206 136 -235 241 -15 54
-12 190 6 251 33 113 82 188 207 314 93 94 125 134 153 190 62 126 67 245 18
390 -13 38 -24 72 -24 75 0 12 109 -105 160 -172z m437 -375 c-24 -72 -30
-105 -30 -184 -1 -91 1 -101 34 -165 30 -60 50 -83 161 -179 70 -60 139 -124
153 -142 113 -140 123 -404 19 -540 -85 -111 -306 -167 -429 -109 -96 46 -164
145 -165 241 0 40 9 69 45 140 74 147 76 221 10 422 -19 57 -37 123 -40 147
-9 57 16 155 58 226 29 50 191 230 207 230 3 0 -7 -39 -23 -87z m-934 -959
c93 -84 224 -133 390 -149 87 -8 96 -15 117 -95 39 -149 154 -249 330 -286 80
-17 161 -13 228 10 111 39 120 24 38 -57 -158 -155 -416 -196 -690 -110 -123
38 -212 89 -286 163 -100 99 -181 272 -196 413 -6 62 1 157 13 157 3 0 28 -21
56 -46z"/>
</g>
</svg>
